<svg xmlns:dc="http://purl.org/dc/elements/1.1/" xmlns:cc="http://creativecommons.org/ns#" xmlns:rdf="http://www.w3.org/1999/02/22-rdf-syntax-ns#" xmlns:svg="http://www.w3.org/2000/svg" xmlns="http://www.w3.org/2000/svg" height="324" width="488" version="1.1" style=""><rect id="backgroundrect" width="100%" height="100%" x="0" y="0" fill="none" stroke="none" style="" class=""/>
  <metadata id="metadata23">
    <rdf:RDF>
      <cc:Work rdf:about="">
        <dc:format>image/svg+xml</dc:format>
        <dc:type rdf:resource="http://purl.org/dc/dcmitype/StillImage"/>
      </cc:Work>
    </rdf:RDF>
  </metadata>
  <defs id="defs21"/>
  
  
  
  
  
<g class="currentLayer" style=""><title>Layer 1</title><g class="selected"><path id="path2" style="fill:#cb9b03;fill-rule:evenodd" d="M0.4304466247558594,22.4906005859375 C273.32574462890625,38.477386474609375 440.9125061035156,169.22879028320312 331.7359313964844,316.43023681640625 C638.97509765625,202.03759765625 325.677734375,-81.06134033203125 0.4304466247558594,22.4906005859375 z" class=""/><path id="path4" style="fill:#565757;fill-rule:evenodd" d="M381.7316589355469,79.77398681640625 C253.37973022460938,-4.7623443603515625 126.33114624023438,-14.46875 -0.018558502197265625,27.02398681640625 C264.55303955078125,43.010894775390625 423.5780334472656,174.88510131835938 317.7315368652344,322.0865478515625 C429.9659118652344,279.7286376953125 497.00439453125,185.64938354492188 381.7316589355469,79.77398681640625 z" class=""/><path id="path6" style="fill:#122b41;fill-rule:evenodd" d="M7.930049896240234,28.82318115234375 C272.50164794921875,44.80999755859375 431.5267028808594,176.68429565429688 325.68023681640625,323.88568115234375 C628.7833862304688,209.49298095703125 323.2568359375,-74.72874450683594 7.930049896240234,28.82318115234375 z" class=""/><path id="path8" style="fill:#0f3352;fill-rule:evenodd" d="m7.930049896240234,28.9810791015625 c7.17140007019043,0.4332999885082245 14.250300407409668,0.9678000211715698 21.264799118041992,1.5680999755859375 c50.77560043334961,-18.49850082397461 113.64230346679688,-22.975000381469727 180.51449584960938,-18.63170051574707 l2.8761000633239746,-0.6351000070571899 C149.324951171875,1.8890380859375 78.88433837890625,5.679901123046875 7.930049896240234,28.9810791015625 z" class=""/><g id="Layer1000" class="">
    <path id="path10" style="fill:#945900;fill-opacity:0;fill-rule:evenodd" d="M20.316543579101562,22.41259765625 H479.59210205078125 V297.48345947265625 H20.316543579101562 z"/>
    <path id="path12" style="fill:#f39202;fill-opacity:0;fill-rule:evenodd" d="M7.983844757080078,20.01507568359375 V315.84637451171875 H488.01971435546875 V20.01507568359375 z"/>
    <path id="path14" style="fill:#ffffff;fill-rule:evenodd" d="m233.24264526367188,150.84478759765625 c0,3.099100112915039 -0.24629999697208405,6.114299774169922 -0.738099992275238,9.048700332641602 c5.583099842071533,-4.269499778747559 11.226900100708008,-8.715399742126465 16.82390022277832,-13.301300048828125 c7.396999835968018,-5.995500087738037 14.078300476074219,-12.310799598693848 20.043500900268555,-18.865999221801758 c6.044899940490723,-6.554800033569336 10.896400451660156,-13.429699897766113 14.714400291442871,-20.704200744628906 c3.817699909210205,-7.274600028991699 5.726799964904785,-14.94909954071045 5.726799964904785,-23.1028995513916 c0,-3.3573999404907227 -0.3977000117301941,-6.6350998878479 -1.0343999862670898,-9.832599639892578 c-0.7156999707221985,-3.117500066757202 -1.829200029373169,-5.036300182342529 -3.4200000762939453,-5.835700035095215 c-5.2494001388549805,0 -10.896599769592285,2.31820011138916 -16.861600875854492,6.795000076293945 c-5.9654998779296875,4.556700229644775 -11.692000389099121,10.951899528503418 -17.180200576782227,19.345600128173828 c-5.40880012512207,8.313699722290039 -10.260299682617188,18.38599967956543 -14.555299758911133,30.217300415039062 c-1.7141000032424927,4.77810001373291 -3.256999969482422,9.780900001525879 -4.618500232696533,14.9975004196167 c0.7347000241279602,3.483799934387207 1.0994999408721924,7.228099822998047 1.0994999408721924,11.23859977722168 zm-53.609901428222656,67.70770263671875 c-6.974100112915039,3.6073999404907227 -14.003399848937988,6.719799995422363 -21.088600158691406,9.39210033416748 c-7.1631999015808105,2.6449999809265137 -13.98449993133545,4.839600086212158 -20.408599853515625,6.471700191497803 c-17.793699264526367,4.614799976348877 -34.22269821166992,6.921999931335449 -49.28739929199219,6.921999931335449 c-3.126699924468994,0 -6.367199897766113,-0.05620000138878822 -9.777899742126465,-0.16869999468326569 c-3.3541998863220215,-0.11249999701976776 -7.163099765777588,-0.39399999380111694 -11.36970043182373,-0.9567000269889832 c-4.661600112915039,-0.5629000067710876 -8.925200462341309,-1.1818000078201294 -12.67710018157959,-1.9134000539779663 c-3.752000093460083,-0.7315999865531921 -7.276599884033203,-1.5196000337600708 -10.51710033416748,-2.363800048828125 c-2.501300096511841,-0.7876999974250793 -4.832300186157227,-1.969499945640564 -6.878600120544434,-3.545300006866455 c-2.046600103378296,-1.632200002670288 -3.8089001178741455,-3.4890999794006348 -5.230199813842773,-5.627900123596191 c-1.4780000448226929,-2.138400077819824 -2.558000087738037,-4.445799827575684 -3.3538999557495117,-6.921899795532227 c-0.7960000038146973,-2.476300001144409 -1.194000005722046,-4.896299839019775 -1.194000005722046,-7.315899848937988 c0,-6.6407999992370605 1.98989999294281,-11.593199729919434 5.912499904632568,-14.969799995422363 c3.979300022125244,-3.320499897003174 9.379899978637695,-5.008800029754639 16.258399963378906,-5.008800029754639 c1.1373000144958496,0 1.98989999294281,0.11249999701976776 2.6719000339508057,0.22499999403953552 c0.6822999715805054,0.16899999976158142 1.3073999881744385,0.39410001039505005 1.9896999597549438,0.6754999756813049 c0.6822999715805054,0.2815000116825104 1.4213000535964966,0.6190999746322632 2.330899953842163,1.0693000555038452 c0.9093999862670898,0.45010000467300415 2.046600103378296,1.013100028038025 3.524600028991699,1.6883000135421753 c5.969200134277344,2.3635001182556152 11.93809986114502,4.614799976348877 17.90730094909668,6.5843000411987305 c5.9120001792907715,1.9697999954223633 11.71049976348877,2.926500082015991 17.395700454711914,2.926500082015991 c5.741499900817871,0 12.165399551391602,-0.39399999380111694 19.15760040283203,-1.2381999492645264 c6.992499828338623,-0.7876999974250793 14.041500091552734,-2.0820000171661377 21.204299926757812,-3.7702999114990234 c7.162899971008301,-1.6884000301361084 14.155400276184082,-3.88319993019104 20.920299530029297,-6.58459997177124 c6.765100002288818,-2.701200008392334 12.79069995880127,-5.90910005569458 18.077899932861328,-9.62339973449707 c0.7572000026702881,-0.5400000214576721 1.4918999671936035,-1.091599941253662 2.2047998905181885,-1.6546000242233276 c0.30640000104904175,-9.297300338745117 1.1210999488830566,-18.48889923095703 2.4072000980377197,-27.538299560546875 c0.8130000233650208,-5.757999897003174 1.9085999727249146,-11.458999633789062 3.277400016784668,-17.12179946899414 c-1.2092000246047974,-0.5940999984741211 -2.5313000679016113,-1.1017999649047852 -3.9667999744415283,-1.520799994468689 c-11.483400344848633,-3.658099889755249 -24.501800537109375,-5.458899974822998 -39.168800354003906,-5.458899974822998 c-19.21470069885254,0 -35.87110137939453,3.9395999908447266 -49.96950149536133,11.705599784851074 c-13.416299819946289,0 -20.12420082092285,-3.82669997215271 -20.12420082092285,-11.536700248718262 c0,-0.6751999855041504 0.1136000007390976,-1.6883000135421753 0.3978999853134155,-3.0390000343322754 c0.28439998626708984,-1.3507000207901 0.7390000224113464,-2.8701000213623047 1.364400029182434,-4.5584001541137695 c0.5683000087738037,-1.6318999528884888 1.3639999628067017,-3.320199966430664 2.330899953842163,-5.008500099182129 c0.9093000292778015,-1.6884000301361084 2.1029999256134033,-3.2641000747680664 3.524600028991699,-4.671299934387207 c1.4776999950408936,-1.4631999731063843 3.467600107192993,-3.320199966430664 6.082600116729736,-5.571199893951416 c2.6149001121520996,-2.251199960708618 5.627900123596191,-4.783699989318848 8.925100326538086,-7.653800010681152 c3.467900037765503,-2.982599973678589 7.901899814605713,-6.5843000411987305 13.416099548339844,-10.861499786376953 c5.514500141143799,-4.276899814605713 11.483499526977539,-8.722800254821777 17.90730094909668,-13.281499862670898 c6.423900127410889,-4.5584001541137695 13.075400352478027,-9.004199981689453 19.953699111938477,-13.337499618530273 c6.935500144958496,-4.333399772644043 13.472999572753906,-8.104000091552734 19.669599533081055,-11.311699867248535 c-1.194000005722046,0 -4.149700164794922,0.39399999380111694 -8.754799842834473,1.1256999969482422 c-4.604599952697754,0.7876999974250793 -10.06190013885498,1.7444000244140625 -16.372100830078125,2.8136000633239746 c-6.367199897766113,1.1256999969482422 -13.132100105285645,2.3073999881744385 -20.351900100708008,3.545599937438965 c-7.219600200653076,1.2942999601364136 -13.984399795532227,2.476099967956543 -20.351600646972656,3.545300006866455 c-6.423900127410889,1.125599980354309 -11.994799613952637,2.02620005607605 -16.770099639892578,2.7578001022338867 c-4.7754998207092285,0.6751999855041504 -7.845399856567383,1.069200038909912 -9.152799606323242,1.069200038909912 c-10.80109977722168,0 -19.100900650024414,-2.476300001144409 -24.956499099731445,-7.428699970245361 c-5.911900043487549,-4.952400207519531 -8.8681001663208,-12.380900382995605 -8.8681001663208,-22.28569984436035 c0,-4.501999855041504 1.705299973487854,-8.047599792480469 5.116199970245361,-10.69260025024414 c3.3541998863220215,-2.6449999809265137 7.5609002113342285,-3.939300060272217 12.563699722290039,-3.939300060272217 c1.7619999647140503,0 3.5813000202178955,0.22509999573230743 5.457300186157227,0.7878000140190125 c1.9328999519348145,0.5626000165939331 3.695199966430664,1.1816999912261963 5.457499980926514,1.9133000373840332 c1.705299973487854,0.7317000031471252 3.354300022125244,1.4632999897003174 5.002600193023682,2.1949000358581543 c1.5916999578475952,0.7879999876022339 3.013000011444092,1.4632999897003174 4.206900119781494,2.025899887084961 c1.2503999471664429,0.39399999380111694 2.615000009536743,0.7317000031471252 4.0929999351501465,0.9567000269889832 c1.4781999588012695,0.22509999573230743 3.183500051498413,0.3375999927520752 5.059500217437744,0.3375999927520752 c2.6717000007629395,0 5.912199974060059,-0.11249999701976776 9.664199829101562,-0.3937000036239624 c3.8089001178741455,-0.2815000116825104 8.356499671936035,-0.6754999756813049 13.700400352478027,-1.1818000078201294 c5.286900043487549,-0.5065000057220459 11.540399551391602,-1.0694999694824219 18.646299362182617,-1.6883000135421753 c7.106200218200684,-0.6754999756813049 15.17870044708252,-1.3507000207901 24.274200439453125,-2.02620005607605 c1.1369999647140503,-0.11249999701976776 2.728600025177002,-0.22509999573230743 4.832200050354004,-0.3375999927520752 c2.1600000858306885,-0.11249999701976776 4.490900039672852,-0.22509999573230743 7.106200218200684,-0.39399999380111694 c2.6147000789642334,-0.16869999468326569 5.286600112915039,-0.3375999927520752 8.072199821472168,-0.5062999725341797 c2.785599946975708,-0.1688999980688095 5.343900203704834,-0.2815000116825104 7.731500148773193,-0.39399999380111694 c2.3873000144958496,-0.11249999701976776 4.434199810028076,-0.22509999573230743 6.082600116729736,-0.3375999927520752 c1.6485999822616577,-0.11249999701976776 2.7288999557495117,-0.1688999980688095 3.1835999488830566,-0.1688999980688095 c17.395599365234375,0 26.150100708007812,5.85290002822876 26.150100708007812,17.502199172973633 c0,3.4892001152038574 -0.6252999901771545,6.5843000411987305 -1.9326000213623047,9.285699844360352 c-1.2510000467300415,2.701200008392334 -3.297300100326538,5.346199989318848 -6.139900207519531,7.822500228881836 c-2.8422999382019043,2.5325000286102295 -6.423799991607666,5.177499771118164 -10.744099617004395,7.934999942779541 c-4.3206000328063965,2.7576000690460205 -9.607500076293945,6.021699905395508 -15.860699653625488,9.735899925231934 c-4.093200206756592,2.4200000762939453 -8.29990005493164,4.78380012512207 -12.563400268554688,7.09089994430542 c-4.263599872589111,2.3073999881744385 -8.300200462341309,4.502200126647949 -12.165800094604492,6.6971001625061035 c-3.8089001178741455,2.1384999752044678 -7.333499908447266,4.276899814605713 -10.57349967956543,6.471799850463867 c-3.1835999488830566,2.1949000358581543 -5.912499904632568,4.445899963378906 -8.129500389099121,6.753300189971924 c1.4213000535964966,-0.11259999871253967 3.1835999488830566,-0.22509999573230743 5.230199813842773,-0.45019999146461487 c2.0464000701904297,-0.22509999573230743 4.263599872589111,-0.5065000057220459 6.594600200653076,-0.7879999876022339 c2.3303000926971436,-0.22509999573230743 4.661200046539307,-0.5062999725341797 7.048900127410889,-0.7315999865531921 c2.3875999450683594,-0.22509999573230743 4.604800224304199,-0.3375999927520752 6.594200134277344,-0.3375999927520752 c9.550800323486328,0 18.646299362182617,0.9004999995231628 27.287399291992188,2.6449999809265137 c1.9845999479293823,0.41100001335144043 3.9126999378204346,0.8777999877929688 5.784999847412109,1.4005999565124512 c2.7109999656677246,-6.017399787902832 5.760000228881836,-11.980400085449219 9.147100448608398,-17.85260009765625 c6.3628997802734375,-11.111900329589844 14.157600402832031,-21.903600692749023 23.543100357055664,-32.37590026855469 c3.419800043106079,-3.8369998931884766 7.3968000411987305,-7.594299793243408 12.010199546813965,-11.191499710083008 c4.533400058746338,-3.5975000858306885 9.464799880981445,-6.794899940490723 14.634699821472168,-9.593000411987305 c5.1697998046875,-2.797800064086914 10.657899856567383,-5.116000175476074 16.305099487304688,-6.794899940490723 c5.647200107574463,-1.7587000131607056 11.294099807739258,-2.638000011444092 16.941299438476562,-2.638000011444092 c8.192399978637695,0 15.271400451660156,1.5987999439239502 21.31599998474121,4.716599941253662 c5.9654998779296875,3.117500066757202 10.896900177001953,7.274499893188477 14.793999671936035,12.550399780273438 c3.897599935531616,5.196199893951416 6.7606000900268555,11.191699981689453 8.590399742126465,17.9867000579834 c1.9088000059127808,6.794899940490723 2.783600091934204,13.989500045776367 2.783600091934204,21.5039005279541 c0,13.82960033416748 -5.0904998779296875,28.298799514770508 -15.350700378417969,43.167701721191406 c-10.260299682617188,14.948699951171875 -24.497600555419922,30.137300491333008 -42.63199996948242,45.805599212646484 c-5.885799884796143,4.956299781799316 -12.726099967956543,10.39229965209961 -20.520599365234375,16.22800064086914 c-7.7947001457214355,5.91540002822876 -16.464099884033203,12.470499992370605 -26.088300704956055,19.825000762939453 c0.3179999887943268,3.9172000885009766 1.43149995803833,7.594299793243408 3.34060001373291,11.031800270080566 c1.9884999990463257,3.437299966812134 4.613100051879883,6.395299911499023 7.953700065612793,8.953300476074219 c3.340399980545044,2.638200044631958 7.317399978637695,4.636600017547607 12.009900093078613,6.155399799346924 c4.61329984664917,1.4388999938964844 9.942500114440918,2.1582999229431152 15.828300476074219,2.1582999229431152 c7.63539981842041,0 15.668800354003906,-0.9592000246047974 24.25860023498535,-2.877700090408325 c8.510499954223633,-1.9983999729156494 17.02120018005371,-4.556700229644775 25.372699737548828,-7.834099769592285 c8.351400375366211,-3.2776999473571777 16.543500900268555,-7.114699840545654 24.497299194335938,-11.351699829101562 c7.874000072479248,-4.3165998458862305 15.112000465393066,-8.793299674987793 21.634000778198242,-13.509900093078613 c11.532999992370605,-8.233799934387207 22.588699340820312,-17.187000274658203 33.246700286865234,-26.779699325561523 c10.578300476074219,-9.593000411987305 20.918500900268555,-19.425600051879883 30.86050033569336,-29.417999267578125 l12.328399658203125,-12.390800476074219 c8.510499954223633,-7.674200057983398 15.827899932861328,-11.511500358581543 21.872699737548828,-11.511500358581543 c3.1814000606536865,0 5.249499797821045,1.039199948310852 6.442599773406982,3.1977999210357666 c1.1928000450134277,2.0782999992370605 1.7496000528335571,3.9168999195098877 1.7496000528335571,5.515600204467773 c0,2.798099994659424 -2.0678999423980713,7.914100170135498 -6.283299922943115,15.42870044708252 c-8.112799644470215,11.671099662780762 -17.02090072631836,23.26259994506836 -26.963199615478516,34.773799896240234 c-9.862500190734863,11.511500358581543 -20.361499786376953,22.383499145507812 -31.49679946899414,32.69559860229492 c-11.214799880981445,10.312199592590332 -22.9064998626709,19.825199127197266 -34.996299743652344,28.69849967956543 c-12.089799880981445,8.793399810791016 -24.41790008544922,16.387699127197266 -36.82569885253906,22.782899856567383 c-12.408100128173828,6.395299911499023 -24.815900802612305,11.431599617004395 -37.144100189208984,15.108699798583984 c-12.328200340270996,3.6774001121520996 -24.41790008544922,5.515900135040283 -36.26900100708008,5.515900135040283 c-26.565500259399414,0 -47.244998931884766,-7.5142998695373535 -62.039100646972656,-22.62299919128418 c-10.021300315856934,-10.125900268554688 -16.648099899291992,-23.773000717163086 -19.905399322509766,-40.91529846191406 z"/>
  </g></g></g></svg>