<?xml version="1.0" encoding="UTF-8" standalone="no"?>
<svg
   xmlns:dc="http://purl.org/dc/elements/1.1/"
   xmlns:cc="http://creativecommons.org/ns#"
   xmlns:rdf="http://www.w3.org/1999/02/22-rdf-syntax-ns#"
   xmlns:svg="http://www.w3.org/2000/svg"
   xmlns="http://www.w3.org/2000/svg"
   viewBox="0 200 595.27557 841.88977"
   id="svg17"
   height="150"
   width="106"
   version="1.1">
  <metadata
     id="metadata23">
    <rdf:RDF>
      <cc:Work
         rdf:about="">
        <dc:format>image/svg+xml</dc:format>
        <dc:type
           rdf:resource="http://purl.org/dc/dcmitype/StillImage" />
      </cc:Work>
    </rdf:RDF>
  </metadata>
  <defs
     id="defs21" />
  <path
     id="path2"
     style="fill:#cb9b03;fill-rule:evenodd"
     d="M 50.0664,275.5049 C 322.9617,291.4917 490.5485,422.2431 381.3719,569.4446 688.6111,455.0519 375.3137,171.953 50.0664,275.5049 Z" />
  <path
     id="path4"
     style="fill:#565757;fill-rule:evenodd"
     d="M 431.3676,332.7883 C 303.0157,248.252 175.9671,238.5456 49.6174,280.0383 314.189,296.0252 473.214,427.8994 367.3675,575.1009 479.6019,532.743 546.6404,438.6637 431.3676,332.7883 Z" />
  <path
     id="path6"
     style="fill:#122b41;fill-rule:evenodd"
     d="M 57.566,281.8375 C 322.1376,297.8243 481.1627,429.6986 375.3162,576.9 678.4194,462.5073 372.8928,178.2856 57.566,281.8375 Z" />
  <path
     id="path8"
     style="fill:#0f3352;fill-rule:evenodd"
     d="m 57.566,281.9954 c 7.1714,0.4333 14.2503,0.9678 21.2648,1.5681 50.7756,-18.4985 113.6423,-22.975 180.5145,-18.6317 l 2.8761,-0.6351 C 198.9609,254.9034 128.5203,258.6942 57.566,281.9954 Z" />
  <g
     id="Layer1000">
    <path
       id="path10"
       style="fill:#945900;fill-opacity:0;fill-rule:evenodd"
       d="M 69.9525,275.4269 H 529.2281 V 550.4978 H 69.9525 Z" />
    <path
       id="path12"
       style="fill:#f39202;fill-opacity:0;fill-rule:evenodd"
       d="M 57.6198,273.0294 V 568.8607 H 537.6557 V 273.0294 Z" />
    <path
       id="path14"
       style="fill:#ffffff;fill-rule:evenodd"
       d="m 282.8786,403.8591 c 0,3.0991 -0.2463,6.1143 -0.7381,9.0487 5.5831,-4.2695 11.2269,-8.7154 16.8239,-13.3013 7.397,-5.9955 14.0783,-12.3108 20.0435,-18.866 6.0449,-6.5548 10.8964,-13.4297 14.7144,-20.7042 3.8177,-7.2746 5.7268,-14.9491 5.7268,-23.1029 0,-3.3574 -0.3977,-6.6351 -1.0344,-9.8326 -0.7157,-3.1175 -1.8292,-5.0363 -3.42,-5.8357 -5.2494,0 -10.8966,2.3182 -16.8616,6.795 -5.9655,4.5567 -11.692,10.9519 -17.1802,19.3456 -5.4088,8.3137 -10.2603,18.386 -14.5553,30.2173 -1.7141,4.7781 -3.257,9.7809 -4.6185,14.9975 0.7347,3.4838 1.0995,7.2281 1.0995,11.2386 z m -53.6099,67.7077 c -6.9741,3.6074 -14.0034,6.7198 -21.0886,9.3921 -7.1632,2.645 -13.9845,4.8396 -20.4086,6.4717 -17.7937,4.6148 -34.2227,6.922 -49.2874,6.922 -3.1267,0 -6.3672,-0.0562 -9.7779,-0.1687 -3.3542,-0.1125 -7.1631,-0.394 -11.3697,-0.9567 -4.6616,-0.5629 -8.9252,-1.1818 -12.6771,-1.9134 -3.752,-0.7316 -7.2766,-1.5196 -10.5171,-2.3638 -2.5013,-0.7877 -4.8323,-1.9695 -6.8786,-3.5453 -2.0466,-1.6322 -3.8089,-3.4891 -5.2302,-5.6279 -1.478,-2.1384 -2.558,-4.4458 -3.3539,-6.9219 -0.796,-2.4763 -1.194,-4.8963 -1.194,-7.3159 0,-6.6408 1.9899,-11.5932 5.9125,-14.9698 3.9793,-3.3205 9.3799,-5.0088 16.2584,-5.0088 1.1373,0 1.9899,0.1125 2.6719,0.225 0.6823,0.169 1.3074,0.3941 1.9897,0.6755 0.6823,0.2815 1.4213,0.6191 2.3309,1.0693 0.9094,0.4501 2.0466,1.0131 3.5246,1.6883 5.9692,2.3635 11.9381,4.6148 17.9073,6.5843 5.912,1.9698 11.7105,2.9265 17.3957,2.9265 5.7415,0 12.1654,-0.394 19.1576,-1.2382 6.9925,-0.7877 14.0415,-2.082 21.2043,-3.7703 7.1629,-1.6884 14.1554,-3.8832 20.9203,-6.5846 6.7651,-2.7012 12.7907,-5.9091 18.0779,-9.6234 0.7572,-0.54 1.4919,-1.0916 2.2048,-1.6546 0.3064,-9.2973 1.1211,-18.4889 2.4072,-27.5383 0.813,-5.758 1.9086,-11.459 3.2774,-17.1218 -1.2092,-0.5941 -2.5313,-1.1018 -3.9668,-1.5208 -11.4834,-3.6581 -24.5018,-5.4589 -39.1688,-5.4589 -19.2147,0 -35.8711,3.9396 -49.9695,11.7056 -13.4163,0 -20.1242,-3.8267 -20.1242,-11.5367 0,-0.6752 0.1136,-1.6883 0.3979,-3.039 0.2844,-1.3507 0.739,-2.8701 1.3644,-4.5584 0.5683,-1.6319 1.364,-3.3202 2.3309,-5.0085 0.9093,-1.6884 2.103,-3.2641 3.5246,-4.6713 1.4777,-1.4632 3.4676,-3.3202 6.0826,-5.5712 2.6149,-2.2512 5.6279,-4.7837 8.9251,-7.6538 3.4679,-2.9826 7.9019,-6.5843 13.4161,-10.8615 5.5145,-4.2769 11.4835,-8.7228 17.9073,-13.2815 6.4239,-4.5584 13.0754,-9.0042 19.9537,-13.3375 6.9355,-4.3334 13.473,-8.104 19.6696,-11.3117 -1.194,0 -4.1497,0.394 -8.7548,1.1257 -4.6046,0.7877 -10.0619,1.7444 -16.3721,2.8136 -6.3672,1.1257 -13.1321,2.3074 -20.3519,3.5456 -7.2196,1.2943 -13.9844,2.4761 -20.3516,3.5453 -6.4239,1.1256 -11.9948,2.0262 -16.7701,2.7578 -4.7755,0.6752 -7.8454,1.0692 -9.1528,1.0692 -10.8011,0 -19.1009,-2.4763 -24.9565,-7.4287 -5.9119,-4.9524 -8.8681,-12.3809 -8.8681,-22.2857 0,-4.502 1.7053,-8.0476 5.1162,-10.6926 3.3542,-2.645 7.5609,-3.9393 12.5637,-3.9393 1.762,0 3.5813,0.2251 5.4573,0.7878 1.9329,0.5626 3.6952,1.1817 5.4575,1.9133 1.7053,0.7317 3.3543,1.4633 5.0026,2.1949 1.5917,0.788 3.013,1.4633 4.2069,2.0259 1.2504,0.394 2.615,0.7317 4.093,0.9567 1.4782,0.2251 3.1835,0.3376 5.0595,0.3376 2.6717,0 5.9122,-0.1125 9.6642,-0.3937 3.8089,-0.2815 8.3565,-0.6755 13.7004,-1.1818 5.2869,-0.5065 11.5404,-1.0695 18.6463,-1.6883 7.1062,-0.6755 15.1787,-1.3507 24.2742,-2.0262 1.137,-0.1125 2.7286,-0.2251 4.8322,-0.3376 2.16,-0.1125 4.4909,-0.2251 7.1062,-0.394 2.6147,-0.1687 5.2866,-0.3376 8.0722,-0.5063 2.7856,-0.1689 5.3439,-0.2815 7.7315,-0.394 2.3873,-0.1125 4.4342,-0.2251 6.0826,-0.3376 1.6486,-0.1125 2.7289,-0.1689 3.1836,-0.1689 17.3956,0 26.1501,5.8529 26.1501,17.5022 0,3.4892 -0.6253,6.5843 -1.9326,9.2857 -1.251,2.7012 -3.2973,5.3462 -6.1399,7.8225 -2.8423,2.5325 -6.4238,5.1775 -10.7441,7.935 -4.3206,2.7576 -9.6075,6.0217 -15.8607,9.7359 -4.0932,2.42 -8.2999,4.7838 -12.5634,7.0909 -4.2636,2.3074 -8.3002,4.5022 -12.1658,6.6971 -3.8089,2.1385 -7.3335,4.2769 -10.5735,6.4718 -3.1836,2.1949 -5.9125,4.4459 -8.1295,6.7533 1.4213,-0.1126 3.1836,-0.2251 5.2302,-0.4502 2.0464,-0.2251 4.2636,-0.5065 6.5946,-0.788 2.3303,-0.2251 4.6612,-0.5063 7.0489,-0.7316 2.3876,-0.2251 4.6048,-0.3376 6.5942,-0.3376 9.5508,0 18.6463,0.9005 27.2874,2.645 1.9846,0.411 3.9127,0.8778 5.785,1.4006 2.711,-6.0174 5.76,-11.9804 9.1471,-17.8526 6.3629,-11.1119 14.1576,-21.9036 23.5431,-32.3759 3.4198,-3.837 7.3968,-7.5943 12.0102,-11.1915 4.5334,-3.5975 9.4648,-6.7949 14.6347,-9.593 5.1698,-2.7978 10.6579,-5.116 16.3051,-6.7949 5.6472,-1.7587 11.2941,-2.638 16.9413,-2.638 8.1924,0 15.2714,1.5988 21.316,4.7166 5.9655,3.1175 10.8969,7.2745 14.794,12.5504 3.8976,5.1962 6.7606,11.1917 8.5904,17.9867 1.9088,6.7949 2.7836,13.9895 2.7836,21.5039 0,13.8296 -5.0905,28.2988 -15.3507,43.1677 -10.2603,14.9487 -24.4976,30.1373 -42.632,45.8056 -5.8858,4.9563 -12.7261,10.3923 -20.5206,16.228 -7.7947,5.9154 -16.4641,12.4705 -26.0883,19.825 0.318,3.9172 1.4315,7.5943 3.3406,11.0318 1.9885,3.4373 4.6131,6.3953 7.9537,8.9533 3.3404,2.6382 7.3174,4.6366 12.0099,6.1554 4.6133,1.4389 9.9425,2.1583 15.8283,2.1583 7.6354,0 15.6688,-0.9592 24.2586,-2.8777 8.5105,-1.9984 17.0212,-4.5567 25.3727,-7.8341 8.3514,-3.2777 16.5435,-7.1147 24.4973,-11.3517 7.874,-4.3166 15.112,-8.7933 21.634,-13.5099 11.533,-8.2338 22.5887,-17.187 33.2467,-26.7797 10.5783,-9.593 20.9185,-19.4256 30.8605,-29.418 l 12.3284,-12.3908 c 8.5105,-7.6742 15.8279,-11.5115 21.8727,-11.5115 3.1814,0 5.2495,1.0392 6.4426,3.1978 1.1928,2.0783 1.7496,3.9169 1.7496,5.5156 0,2.7981 -2.0679,7.9141 -6.2833,15.4287 -8.1128,11.6711 -17.0209,23.2626 -26.9632,34.7738 -9.8625,11.5115 -20.3615,22.3835 -31.4968,32.6956 -11.2148,10.3122 -22.9065,19.8252 -34.9963,28.6985 -12.0898,8.7934 -24.4179,16.3877 -36.8257,22.7829 -12.4081,6.3953 -24.8159,11.4316 -37.1441,15.1087 -12.3282,3.6774 -24.4179,5.5159 -36.269,5.5159 -26.5655,0 -47.245,-7.5143 -62.0391,-22.623 -10.0213,-10.1259 -16.6481,-23.773 -19.9054,-40.9153 z" />
  </g>
</svg>
