<?xml version="1.0" encoding="UTF-8" standalone="no"?>
<!DOCTYPE svg PUBLIC "-//W3C//DTD SVG 1.1//EN" "http://www.w3.org/Graphics/SVG/1.1/DTD/svg11.dtd">
<svg version="1.1" xmlns="http://www.w3.org/2000/svg" xmlns:xlink="http://www.w3.org/1999/xlink" preserveAspectRatio="xMidYMid meet" viewBox="0 0 150 150" width="150" height="150"><defs><path d="" id="aex3CrtcF"></path><path d="M90.97 49.35C81.34 39.48 70.85 39.48 59.49 49.35" id="c2sp7L87T"></path><path d="M75.23 26.2C56.59 26.57 45.17 34.29 40.97 49.35" id="d5BcgJ71lw"></path><path d="M74.77 26.2C93.41 26.57 104.83 34.29 109.03 49.35" id="d2tivwqYAX"></path><path d="M59.49 89.54C49.74 85.22 43.56 79.29 40.97 71.76L40.97 49.35" id="c4dABeAlcv"></path><path d="M90.51 89.54C100.26 85.22 106.44 79.29 109.03 71.76L109.03 49.35" id="eZpOTvsVf"></path><path d="M59.49 89.54L59.49 49.35" id="a5RBDcHmv"></path><path d="M90.97 49.35L90.97 89.54" id="a5oIrAIf9A"></path><path d="M65.42 67.13L65.42 109.35L75.23 118.43L85.23 109.35L85.23 67.13L75.23 58.43L65.42 67.13Z" id="d1vfV5WCRu"></path><path d="M65.42 103.06C61.59 102.81 58.75 100.77 56.9 96.94L56.9 88.43" id="aaSbdlT7x8"></path><path d="M85.23 103.06C89.06 102.81 91.9 100.77 93.75 96.94L93.75 88.43" id="a6eVnG2noV"></path><path d="M35.42 70.46C35.42 67.75 37.27 64.1 40.97 59.54" id="d1Z7tAfAp6"></path><path d="M114.58 70.46C114.58 67.75 112.73 64.1 109.03 59.54" id="c9movMUif"></path><path d="M35.42 97.31L35.42 70.46" id="cIlINLxbB"></path><path d="M75.23 123.8C50.79 123.8 37.52 114.97 35.42 97.31" id="a2oCE8rPu"></path><path d="M74.77 123.8C99.21 123.8 112.48 114.97 114.58 97.31" id="d2JLihMTV3"></path><path d="M114.58 97.31L114.58 70.46" id="aaZiWB7gN"></path></defs><g><g><g><g><g><use xlink:href="#aex3CrtcF" opacity="1" fill-opacity="0" stroke="#000000" stroke-width="1" stroke-opacity="1"></use></g></g><g><g><use xlink:href="#c2sp7L87T" opacity="1" fill-opacity="0" stroke="#000000" stroke-width="1" stroke-opacity="1"></use></g></g><g><g><use xlink:href="#d5BcgJ71lw" opacity="1" fill-opacity="0" stroke="#000000" stroke-width="1" stroke-opacity="1"></use></g></g><g><g><use xlink:href="#d2tivwqYAX" opacity="1" fill-opacity="0" stroke="#000000" stroke-width="1" stroke-opacity="1"></use></g></g><g><g><use xlink:href="#c4dABeAlcv" opacity="1" fill-opacity="0" stroke="#000000" stroke-width="1" stroke-opacity="1"></use></g></g><g><g><use xlink:href="#eZpOTvsVf" opacity="1" fill-opacity="0" stroke="#000000" stroke-width="1" stroke-opacity="1"></use></g></g><g><g><use xlink:href="#a5RBDcHmv" opacity="1" fill-opacity="0" stroke="#000000" stroke-width="1" stroke-opacity="1"></use></g></g><g><g><use xlink:href="#a5oIrAIf9A" opacity="1" fill-opacity="0" stroke="#000000" stroke-width="1" stroke-opacity="1"></use></g></g><g><g><use xlink:href="#d1vfV5WCRu" opacity="1" fill-opacity="0" stroke="#000000" stroke-width="1" stroke-opacity="1"></use></g></g><g><g><use xlink:href="#aaSbdlT7x8" opacity="1" fill-opacity="0" stroke="#000000" stroke-width="1" stroke-opacity="1"></use></g></g><g><g><use xlink:href="#a6eVnG2noV" opacity="1" fill-opacity="0" stroke="#000000" stroke-width="1" stroke-opacity="1"></use></g></g><g><g><use xlink:href="#d1Z7tAfAp6" opacity="1" fill-opacity="0" stroke="#000000" stroke-width="1" stroke-opacity="1"></use></g></g><g><g><use xlink:href="#c9movMUif" opacity="1" fill-opacity="0" stroke="#000000" stroke-width="1" stroke-opacity="1"></use></g></g><g><g><use xlink:href="#cIlINLxbB" opacity="1" fill-opacity="0" stroke="#000000" stroke-width="1" stroke-opacity="1"></use></g></g><g><g><use xlink:href="#a2oCE8rPu" opacity="1" fill-opacity="0" stroke="#000000" stroke-width="1" stroke-opacity="1"></use></g></g><g><g><use xlink:href="#d2JLihMTV3" opacity="1" fill-opacity="0" stroke="#000000" stroke-width="1" stroke-opacity="1"></use></g></g><g><g><use xlink:href="#aaZiWB7gN" opacity="1" fill-opacity="0" stroke="#000000" stroke-width="1" stroke-opacity="1"></use></g></g></g></g></g></svg>